<?xml version="1.0" encoding="UTF-8"?>
<svg id="Capa_1" data-name="Capa 1" xmlns="http://www.w3.org/2000/svg" viewBox="0 0 600.35 439.63">
  <defs>
    <style>
      .cls-1 {
        fill: #2b3184;
      }
    </style>
  </defs>
  <g>
    <path class="cls-1" d="m151.78,80.63c13,8.17,22.97,19.88,29.91,35.11,6.93,15.23,10.4,32.88,10.4,52.95s-3.47,37.71-10.4,52.95c-6.94,15.23-16.91,26.94-29.91,35.11s-28.18,12.26-45.52,12.26c-13.63,0-25.58-2.79-35.86-8.36-10.28-5.57-18.76-13.43-25.45-23.59v27.5H0V0h46.82v97.72c6.69-9.41,14.98-16.66,24.9-21.74,9.9-5.07,21.42-7.62,34.55-7.62,17.34,0,32.51,4.09,45.52,12.26Zm-20.44,133.21c8.79-11.02,13.19-26.57,13.19-46.63s-4.34-34.8-13-44.96c-8.67-10.15-20.81-15.23-36.41-15.23s-27.44,5.27-36.23,15.79c-8.8,10.53-13.19,25.82-13.19,45.89s4.4,35.36,13.19,45.89c8.79,10.53,20.87,15.79,36.23,15.79s27.43-5.51,36.23-16.53Z"/>
    <path class="cls-1" d="m406.95,264.55c-2.48-4.46-4.22-12.26-5.2-23.41-6.45,8.92-14.86,15.79-25.27,20.62-10.4,4.83-22.54,7.25-36.41,7.25s-25.64-2.23-36.04-6.69-18.52-11.02-24.34-19.69c-5.82-8.67-8.73-19.07-8.73-31.21,0-16.84,5.76-30.4,17.28-40.69,11.52-10.28,30.28-16.66,56.29-19.14l28.98-2.6c9.41-1.24,16.28-3.47,20.62-6.69,4.33-3.22,6.5-8.3,6.5-15.23,0-7.92-2.6-13.87-7.8-17.83-5.2-3.96-14.25-5.95-27.12-5.95-9.17,0-16.54.93-22.11,2.79-5.57,1.86-9.72,4.96-12.45,9.29-2.73,4.34-4.46,10.47-5.2,18.39h-46.07c1.24-21.3,8.73-37.53,22.48-48.67,13.75-11.15,34.98-16.72,63.72-16.72s47.68,5.08,60.56,15.23c12.88,10.16,19.32,24.28,19.32,42.36v102.18c0,7.19.68,14.18,2.05,20.99,1.36,6.82,3.28,11.95,5.76,15.42h-46.82Zm-31.4-34c7.56-3.34,13.62-8.48,18.21-15.42,4.58-6.93,6.88-15.73,6.88-26.38v-17.46c-2.23,2.23-5.14,3.97-8.73,5.2-3.59,1.24-7.99,2.11-13.19,2.6l-25.27,2.97c-12.63,1.49-21.55,4.46-26.75,8.92-5.2,4.46-7.8,10.65-7.8,18.58s2.72,14.55,8.17,19.14c5.45,4.59,13.5,6.87,24.15,6.87,8.67,0,16.78-1.67,24.33-5.02Z"/>
    <path class="cls-1" d="m553.53,72.83h46.82v191.73h-46.82V72.83Zm.37-72.74h46.07v43.85h-46.07V.09Z"/>
  </g>
  <g>
    <path class="cls-1" d="m0,340.61h17.23v70.57H0v-70.57Zm.14-25.3h16.96v16.14H.14v-16.14Z"/>
    <path class="cls-1" d="m82.95,341.84c3.69,1.91,6.56,4.79,8.62,8.62,2.05,3.83,3.08,8.48,3.08,13.95v46.77h-17.23v-43.9c0-8.93-4.42-13.4-13.27-13.4-2.65,0-5.18.64-7.59,1.91-2.42,1.28-4.38,3.24-5.88,5.88-1.51,2.65-2.26,5.97-2.26,9.98v39.52h-17.23v-70.57h16.69v10.12c2.37-3.56,5.45-6.4,9.23-8.55,3.78-2.14,8.05-3.21,12.79-3.21,5.01,0,9.37.96,13.06,2.87Z"/>
    <path class="cls-1" d="m176.15,340.61v68.24c0,6.29-1.32,11.74-3.97,16.34-2.65,4.6-6.59,8.16-11.83,10.67-5.24,2.51-11.6,3.76-19.08,3.76-6.66,0-12.36-1.03-17.1-3.08-4.74-2.05-8.39-4.92-10.94-8.62-2.55-3.69-4.01-8-4.38-12.92h16.96c.36,3.74,1.89,6.57,4.58,8.48,2.69,1.92,6.4,2.87,11.15,2.87,5.65,0,9.96-1.46,12.92-4.38,2.96-2.92,4.44-7.16,4.44-12.72v-8.89c-2.37,3.37-5.36,5.97-8.96,7.79-3.6,1.83-7.82,2.73-12.65,2.73-6.29,0-11.85-1.5-16.68-4.51-4.83-3.01-8.57-7.23-11.21-12.65-2.65-5.42-3.97-11.69-3.97-18.81s1.3-13.4,3.9-18.87c2.6-5.47,6.29-9.69,11.08-12.65,4.79-2.96,10.37-4.44,16.75-4.44,5.01,0,9.39.98,13.13,2.94,3.74,1.96,6.79,4.77,9.16,8.41v-9.71h16.68Zm-21.68,50.4c3.23-3.78,4.86-9.14,4.86-16.07s-1.62-12.29-4.86-16.07c-3.24-3.78-7.68-5.68-13.33-5.68-3.65,0-6.84.87-9.57,2.6-2.73,1.73-4.83,4.26-6.29,7.59-1.46,3.33-2.19,7.23-2.19,11.69s.73,8.34,2.19,11.62c1.46,3.28,3.56,5.77,6.29,7.45,2.74,1.69,5.93,2.53,9.57,2.53,5.65,0,10.1-1.89,13.33-5.68Z"/>
    <path class="cls-1" d="m256.7,381.23h-52.79c.64,6.11,2.55,10.67,5.74,13.68,3.19,3.01,7.39,4.51,12.58,4.51,4.01,0,7.36-.89,10.05-2.67,2.69-1.78,4.72-4.26,6.09-7.45h16.55c-1.19,4.74-3.28,8.89-6.29,12.44-3.01,3.56-6.79,6.29-11.35,8.21-4.56,1.92-9.62,2.87-15.18,2.87-6.93,0-13.04-1.5-18.33-4.51-5.29-3.01-9.41-7.32-12.38-12.92-2.96-5.61-4.44-12.1-4.44-19.49s1.46-13.75,4.38-19.35c2.92-5.61,7-9.94,12.24-12.99,5.24-3.05,11.33-4.58,18.26-4.58s13.29,1.62,18.53,4.86c5.24,3.24,9.28,7.73,12.1,13.47,2.83,5.75,4.24,12.36,4.24,19.83v4.1Zm-46.77-24.69c-3.1,2.78-5.06,7-5.88,12.65h35.42c-.73-5.11-2.62-9.18-5.68-12.24-3.06-3.05-7.09-4.58-12.1-4.58-4.74,0-8.66,1.39-11.76,4.17Z"/>
    <path class="cls-1" d="m319.54,341.84c3.69,1.91,6.56,4.79,8.62,8.62s3.08,8.48,3.08,13.95v46.77h-17.23v-43.9c0-8.93-4.42-13.4-13.27-13.4-2.65,0-5.18.64-7.59,1.91-2.42,1.28-4.38,3.24-5.88,5.88-1.51,2.65-2.26,5.97-2.26,9.98v39.52h-17.23v-70.57h16.69v10.12c2.37-3.56,5.45-6.4,9.23-8.55,3.78-2.14,8.05-3.21,12.79-3.21,5.01,0,9.37.96,13.06,2.87Z"/>
    <path class="cls-1" d="m345.19,340.61h17.23v70.57h-17.23v-70.57Zm.14-25.3h16.96v16.14h-16.96v-16.14Z"/>
    <path class="cls-1" d="m442.97,381.23h-52.79c.63,6.11,2.55,10.67,5.74,13.68,3.19,3.01,7.39,4.51,12.58,4.51,4.01,0,7.36-.89,10.05-2.67,2.69-1.78,4.72-4.26,6.08-7.45h16.55c-1.19,4.74-3.28,8.89-6.29,12.44s-6.79,6.29-11.35,8.21c-4.56,1.92-9.62,2.87-15.18,2.87-6.93,0-13.04-1.5-18.33-4.51-5.29-3.01-9.41-7.32-12.38-12.92-2.96-5.61-4.44-12.1-4.44-19.49s1.46-13.75,4.38-19.35c2.92-5.61,7-9.94,12.24-12.99,5.24-3.05,11.33-4.58,18.26-4.58s13.29,1.62,18.53,4.86c5.24,3.24,9.28,7.73,12.1,13.47,2.83,5.75,4.24,12.36,4.24,19.83v4.1Zm-46.77-24.69c-3.1,2.78-5.06,7-5.88,12.65h35.42c-.73-5.11-2.62-9.18-5.68-12.24-3.06-3.05-7.09-4.58-12.1-4.58-4.74,0-8.66,1.39-11.76,4.17Z"/>
    <path class="cls-1" d="m496.03,339.79v15.86h-4.38c-6.47,0-11.49,1.64-15.04,4.92-3.56,3.28-5.33,8.2-5.33,14.77v35.83h-17.23v-70.57h16.68v12.58c1.82-4.19,4.49-7.52,8-9.98,3.51-2.46,7.86-3.69,13.06-3.69,1.82,0,3.23.09,4.24.27Z"/>
    <path class="cls-1" d="m505.34,340.61h17.23v70.57h-17.23v-70.57Zm9.57-28.86h18.19l-12.72,19.69h-12.72l7.25-19.69Z"/>
    <path class="cls-1" d="m582.74,411.18c-.91-1.64-1.55-4.51-1.91-8.62-2.37,3.28-5.47,5.81-9.3,7.59-3.83,1.78-8.3,2.67-13.4,2.67s-9.44-.82-13.27-2.46c-3.83-1.64-6.82-4.05-8.96-7.25-2.14-3.19-3.21-7.02-3.21-11.49,0-6.2,2.12-11.19,6.36-14.98,4.24-3.78,11.15-6.13,20.72-7.04l10.67-.96c3.46-.46,5.99-1.28,7.59-2.46s2.4-3.05,2.4-5.61c0-2.92-.96-5.11-2.87-6.57-1.92-1.46-5.24-2.19-9.98-2.19-3.37,0-6.09.34-8.14,1.02-2.05.69-3.58,1.83-4.58,3.42-1,1.6-1.64,3.85-1.92,6.77h-16.96c.46-7.84,3.21-13.81,8.27-17.92,5.06-4.1,12.88-6.15,23.45-6.15s17.55,1.87,22.29,5.61c4.74,3.74,7.11,8.94,7.11,15.59v37.61c0,2.64.25,5.22.75,7.73.5,2.51,1.21,4.4,2.12,5.68h-17.23Zm-11.56-12.51c2.78-1.23,5.01-3.12,6.7-5.68,1.69-2.55,2.53-5.79,2.53-9.71v-6.43c-.82.82-1.89,1.46-3.21,1.91-1.32.46-2.94.78-4.86.96l-9.3,1.09c-4.65.55-7.93,1.64-9.85,3.28-1.91,1.64-2.87,3.92-2.87,6.84s1,5.36,3.01,7.04c2,1.69,4.97,2.53,8.89,2.53,3.19,0,6.18-.62,8.96-1.85Z"/>
  </g>
</svg>