<?xml version="1.0" encoding="utf-8"?>
<!-- Generator: Adobe Illustrator 23.0.5, SVG Export Plug-In . SVG Version: 6.00 Build 0)  -->
<svg version="1.1" id="Capa_1" xmlns="http://www.w3.org/2000/svg" xmlns:xlink="http://www.w3.org/1999/xlink" x="0px" y="0px"
	 viewBox="0 0 600.3 439.6" style="enable-background:new 0 0 600.3 439.6;" xml:space="preserve">
<g>
	<g>
		<path d="M151.8,80.6c13,8.2,23,19.9,29.9,35.1c6.9,15.2,10.4,32.9,10.4,52.9c0,20.1-3.5,37.7-10.4,52.9
			c-6.9,15.2-16.9,26.9-29.9,35.1S123.6,269,106.3,269c-13.6,0-25.6-2.8-35.9-8.4c-10.3-5.6-18.8-13.4-25.5-23.6v27.5H0V0h46.8v97.7
			c6.7-9.4,15-16.7,24.9-21.7c9.9-5.1,21.4-7.6,34.6-7.6C123.6,68.4,138.8,72.5,151.8,80.6z M131.3,213.8
			c8.8-11,13.2-26.6,13.2-46.6c0-19.8-4.3-34.8-13-45c-8.7-10.2-20.8-15.2-36.4-15.2c-15.4,0-27.4,5.3-36.2,15.8
			c-8.8,10.5-13.2,25.8-13.2,45.9c0,20.1,4.4,35.4,13.2,45.9c8.8,10.5,20.9,15.8,36.2,15.8C110.5,230.4,122.6,224.9,131.3,213.8z"/>
		<path d="M407,264.6c-2.5-4.5-4.2-12.3-5.2-23.4c-6.4,8.9-14.9,15.8-25.3,20.6c-10.4,4.8-22.5,7.2-36.4,7.2
			c-13.6,0-25.6-2.2-36-6.7s-18.5-11-24.3-19.7c-5.8-8.7-8.7-19.1-8.7-31.2c0-16.8,5.8-30.4,17.3-40.7
			c11.5-10.3,30.3-16.7,56.3-19.1l29-2.6c9.4-1.2,16.3-3.5,20.6-6.7c4.3-3.2,6.5-8.3,6.5-15.2c0-7.9-2.6-13.9-7.8-17.8
			c-5.2-4-14.2-5.9-27.1-5.9c-9.2,0-16.5,0.9-22.1,2.8c-5.6,1.9-9.7,5-12.4,9.3c-2.7,4.3-4.5,10.5-5.2,18.4h-46.1
			c1.2-21.3,8.7-37.5,22.5-48.7c13.7-11.1,35-16.7,63.7-16.7c27.5,0,47.7,5.1,60.6,15.2C439.5,93.8,446,107.9,446,126v102.2
			c0,7.2,0.7,14.2,2,21c1.4,6.8,3.3,12,5.8,15.4H407z M375.6,230.6c7.6-3.3,13.6-8.5,18.2-15.4c4.6-6.9,6.9-15.7,6.9-26.4v-17.5
			c-2.2,2.2-5.1,4-8.7,5.2c-3.6,1.2-8,2.1-13.2,2.6l-25.3,3c-12.6,1.5-21.6,4.5-26.8,8.9c-5.2,4.5-7.8,10.7-7.8,18.6
			c0,8.2,2.7,14.6,8.2,19.1c5.4,4.6,13.5,6.9,24.2,6.9C359.9,235.6,368,233.9,375.6,230.6z"/>
		<path d="M553.5,72.8h46.8v191.7h-46.8V72.8z M553.9,0.1H600v43.8h-46.1V0.1z"/>
	</g>
	<g>
		<path d="M0,340.6h17.2v70.6H0V340.6z M0.1,315.3h17v16.1h-17V315.3z"/>
		<path d="M82.9,341.8c3.7,1.9,6.6,4.8,8.6,8.6c2.1,3.8,3.1,8.5,3.1,14v46.8H77.4v-43.9c0-8.9-4.4-13.4-13.3-13.4
			c-2.6,0-5.2,0.6-7.6,1.9c-2.4,1.3-4.4,3.2-5.9,5.9c-1.5,2.6-2.3,6-2.3,10v39.5H31.2v-70.6h16.7v10.1c2.4-3.6,5.4-6.4,9.2-8.5
			c3.8-2.1,8-3.2,12.8-3.2C74.9,339,79.3,339.9,82.9,341.8z"/>
		<path d="M176.2,340.6v68.2c0,6.3-1.3,11.7-4,16.3c-2.6,4.6-6.6,8.2-11.8,10.7c-5.2,2.5-11.6,3.8-19.1,3.8c-6.7,0-12.4-1-17.1-3.1
			c-4.7-2.1-8.4-4.9-10.9-8.6c-2.6-3.7-4-8-4.4-12.9h17c0.4,3.7,1.9,6.6,4.6,8.5c2.7,1.9,6.4,2.9,11.1,2.9c5.7,0,10-1.5,12.9-4.4
			c3-2.9,4.4-7.2,4.4-12.7v-8.9c-2.4,3.4-5.4,6-9,7.8c-3.6,1.8-7.8,2.7-12.7,2.7c-6.3,0-11.9-1.5-16.7-4.5c-4.8-3-8.6-7.2-11.2-12.7
			c-2.6-5.4-4-11.7-4-18.8c0-7.1,1.3-13.4,3.9-18.9c2.6-5.5,6.3-9.7,11.1-12.7c4.8-3,10.4-4.4,16.8-4.4c5,0,9.4,1,13.1,2.9
			c3.7,2,6.8,4.8,9.2,8.4v-9.7H176.2z M154.5,391c3.2-3.8,4.9-9.1,4.9-16.1c0-6.9-1.6-12.3-4.9-16.1c-3.2-3.8-7.7-5.7-13.3-5.7
			c-3.6,0-6.8,0.9-9.6,2.6c-2.7,1.7-4.8,4.3-6.3,7.6c-1.5,3.3-2.2,7.2-2.2,11.7c0,4.5,0.7,8.3,2.2,11.6c1.5,3.3,3.6,5.8,6.3,7.5
			c2.7,1.7,5.9,2.5,9.6,2.5C146.8,396.7,151.2,394.8,154.5,391z"/>
		<path d="M256.7,381.2h-52.8c0.6,6.1,2.6,10.7,5.7,13.7c3.2,3,7.4,4.5,12.6,4.5c4,0,7.4-0.9,10.1-2.7c2.7-1.8,4.7-4.3,6.1-7.5h16.5
			c-1.2,4.7-3.3,8.9-6.3,12.4c-3,3.6-6.8,6.3-11.4,8.2c-4.6,1.9-9.6,2.9-15.2,2.9c-6.9,0-13-1.5-18.3-4.5c-5.3-3-9.4-7.3-12.4-12.9
			c-3-5.6-4.4-12.1-4.4-19.5c0-7.3,1.5-13.7,4.4-19.4c2.9-5.6,7-9.9,12.2-13c5.2-3.1,11.3-4.6,18.3-4.6c7.1,0,13.3,1.6,18.5,4.9
			c5.2,3.2,9.3,7.7,12.1,13.5c2.8,5.7,4.2,12.4,4.2,19.8V381.2z M209.9,356.5c-3.1,2.8-5.1,7-5.9,12.7h35.4
			c-0.7-5.1-2.6-9.2-5.7-12.2c-3.1-3.1-7.1-4.6-12.1-4.6C216.9,352.4,213,353.8,209.9,356.5z"/>
		<path d="M319.5,341.8c3.7,1.9,6.6,4.8,8.6,8.6c2.1,3.8,3.1,8.5,3.1,14v46.8H314v-43.9c0-8.9-4.4-13.4-13.3-13.4
			c-2.6,0-5.2,0.6-7.6,1.9c-2.4,1.3-4.4,3.2-5.9,5.9c-1.5,2.6-2.3,6-2.3,10v39.5h-17.2v-70.6h16.7v10.1c2.4-3.6,5.4-6.4,9.2-8.5
			c3.8-2.1,8-3.2,12.8-3.2C311.5,339,315.9,339.9,319.5,341.8z"/>
		<path d="M345.2,340.6h17.2v70.6h-17.2V340.6z M345.3,315.3h17v16.1h-17V315.3z"/>
		<path d="M443,381.2h-52.8c0.6,6.1,2.6,10.7,5.7,13.7c3.2,3,7.4,4.5,12.6,4.5c4,0,7.4-0.9,10.1-2.7c2.7-1.8,4.7-4.3,6.1-7.5h16.6
			c-1.2,4.7-3.3,8.9-6.3,12.4c-3,3.6-6.8,6.3-11.4,8.2c-4.6,1.9-9.6,2.9-15.2,2.9c-6.9,0-13-1.5-18.3-4.5c-5.3-3-9.4-7.3-12.4-12.9
			c-3-5.6-4.4-12.1-4.4-19.5c0-7.3,1.5-13.7,4.4-19.4c2.9-5.6,7-9.9,12.2-13c5.2-3.1,11.3-4.6,18.3-4.6c7.1,0,13.3,1.6,18.5,4.9
			c5.2,3.2,9.3,7.7,12.1,13.5c2.8,5.7,4.2,12.4,4.2,19.8V381.2z M396.2,356.5c-3.1,2.8-5.1,7-5.9,12.7h35.4
			c-0.7-5.1-2.6-9.2-5.7-12.2c-3.1-3.1-7.1-4.6-12.1-4.6C403.2,352.4,399.3,353.8,396.2,356.5z"/>
		<path d="M496,339.8v15.9h-4.4c-6.5,0-11.5,1.6-15,4.9c-3.6,3.3-5.3,8.2-5.3,14.8v35.8H454v-70.6h16.7v12.6c1.8-4.2,4.5-7.5,8-10
			c3.5-2.5,7.9-3.7,13.1-3.7C493.6,339.5,495,339.6,496,339.8z"/>
		<path d="M505.3,340.6h17.2v70.6h-17.2V340.6z M514.9,311.8h18.2l-12.7,19.7h-12.7L514.9,311.8z"/>
		<path d="M582.7,411.2c-0.9-1.6-1.6-4.5-1.9-8.6c-2.4,3.3-5.5,5.8-9.3,7.6c-3.8,1.8-8.3,2.7-13.4,2.7c-5,0-9.4-0.8-13.3-2.5
			c-3.8-1.6-6.8-4.1-9-7.2c-2.1-3.2-3.2-7-3.2-11.5c0-6.2,2.1-11.2,6.4-15c4.2-3.8,11.1-6.1,20.7-7l10.7-1c3.5-0.5,6-1.3,7.6-2.5
			s2.4-3.1,2.4-5.6c0-2.9-1-5.1-2.9-6.6c-1.9-1.5-5.2-2.2-10-2.2c-3.4,0-6.1,0.3-8.1,1c-2.1,0.7-3.6,1.8-4.6,3.4
			c-1,1.6-1.6,3.9-1.9,6.8h-17c0.5-7.8,3.2-13.8,8.3-17.9s12.9-6.2,23.5-6.2c10.1,0,17.6,1.9,22.3,5.6c4.7,3.7,7.1,8.9,7.1,15.6
			v37.6c0,2.6,0.2,5.2,0.8,7.7c0.5,2.5,1.2,4.4,2.1,5.7H582.7z M571.2,398.7c2.8-1.2,5-3.1,6.7-5.7c1.7-2.6,2.5-5.8,2.5-9.7v-6.4
			c-0.8,0.8-1.9,1.5-3.2,1.9c-1.3,0.5-2.9,0.8-4.9,1l-9.3,1.1c-4.7,0.5-7.9,1.6-9.8,3.3c-1.9,1.6-2.9,3.9-2.9,6.8c0,3,1,5.4,3,7
			c2,1.7,5,2.5,8.9,2.5C565.4,400.5,568.4,399.9,571.2,398.7z"/>
	</g>
</g>
<g>
</g>
<g>
</g>
<g>
</g>
<g>
</g>
<g>
</g>
<g>
</g>
</svg>
